<?xml version="1.0" encoding="UTF-8" standalone="yes"?>
<svg xmlns="http://www.w3.org/2000/svg" viewBox="0 0 24 24" width="24" height="24" fill="#000000">
  <path d="M 3.5 2 C 2.671875 2 2 2.671875 2 3.5 C 2 4.328125 2.671875 5 3.5 5 C 3.53125 5 3.5625 5 3.59375 5 L 4.96875 6.375 C 3.734375 7.914063 3 9.878906 3 12 C 3 13.449219 3.359375 14.816406 3.96875 16.03125 L 5.46875 14.53125 C 5.164063 13.75 5 12.890625 5 12 C 5 10.429688 5.53125 8.980469 6.40625 7.8125 L 7.5625 8.96875 C 7.207031 9.914063 7 10.9375 7 12 C 7 13.0625 7.207031 14.085938 7.5625 15.03125 L 2 20.59375 L 2 22 L 3.40625 22 L 6.375 19.03125 C 7.917969 20.269531 9.875 21 12 21 C 14.113281 21 16.054688 20.257813 17.59375 19.03125 L 20.59375 22 L 22 22 L 22 20.59375 L 19.03125 17.59375 C 20.257813 16.054688 21 14.117188 21 12 C 21 9.882813 20.257813 7.945313 19.03125 6.40625 L 20.4375 5 C 20.457031 5 20.480469 5 20.5 5 C 21.328125 5 22 4.328125 22 3.5 C 22 2.671875 21.328125 2 20.5 2 C 19.671875 2 19 2.671875 19 3.5 C 19 3.519531 19 3.542969 19 3.5625 L 17.59375 4.96875 C 16.054688 3.742188 14.113281 3 12 3 C 10.542969 3 9.1875 3.351563 7.96875 3.96875 L 9.46875 5.46875 C 9.734375 5.363281 10 5.289063 10.28125 5.21875 C 9.601563 5.773438 8.992188 6.402344 8.5 7.125 L 5 3.59375 C 5 3.5625 5 3.53125 5 3.5 C 5 2.671875 4.328125 2 3.5 2 Z M 14.25 5.40625 C 12.285156 6.980469 11 9.339844 11 12 C 11 14.644531 12.246094 17.019531 14.1875 18.59375 C 11.167969 17.746094 9 15.128906 9 12 C 9 8.855469 11.203125 6.238281 14.25 5.40625 Z M 16.25 6.4375 C 17.453125 7.363281 18.347656 8.679688 18.75 10.1875 C 18.625 10.042969 18.511719 9.886719 18.375 9.75 C 17.332031 8.707031 16.082031 7.996094 14.75 7.625 C 15.1875 7.164063 15.6875 6.769531 16.25 6.4375 Z M 13.5625 9.4375 C 14.824219 9.648438 16.007813 10.195313 16.96875 11.15625 C 17.828125 12.015625 18.386719 13.074219 18.65625 14.1875 C 18.570313 14.449219 18.457031 14.691406 18.34375 14.9375 C 18.054688 14.527344 17.738281 14.113281 17.375 13.75 C 16.152344 12.527344 14.628906 11.769531 13.03125 11.46875 C 13.089844 10.753906 13.28125 10.066406 13.5625 9.4375 Z M 13.21875 13.59375 C 14.226563 13.871094 15.179688 14.367188 15.96875 15.15625 C 16.4375 15.625 16.832031 16.179688 17.125 16.75 C 16.859375 17.039063 16.5625 17.324219 16.25 17.5625 C 14.757813 16.667969 13.652344 15.257813 13.21875 13.59375 Z M 8.5 16.875 C 8.996094 17.605469 9.621094 18.21875 10.3125 18.78125 C 9.390625 18.550781 8.550781 18.148438 7.8125 17.59375 Z"/>
</svg>
