<svg id="Layer_1" data-name="Layer 1" xmlns="http://www.w3.org/2000/svg" viewBox="0 0 20 20"><title>icons8-thinking-bubble</title><circle cx="2" cy="19" r="1"/><circle cx="5.5" cy="17.5" r="1.5"/><path d="M16.73,5A4.48,4.48,0,0,0,8.6,4.27,4.8,4.8,0,0,0,7,4a5,5,0,0,0-1.7,9.7,5,5,0,0,0,7,2.72A4.39,4.39,0,0,0,14.5,17a4.5,4.5,0,0,0,3.86-2.2A5,5,0,0,0,16.73,5ZM14,13.4h-3.1v-.46H14Zm0-1h-3.1V12H14Zm0-2v1h-3.1v-1a3.46,3.46,0,0,1-1.77-3A3.39,3.39,0,0,1,12.49,4,3.38,3.38,0,0,1,15.8,7.43,3.47,3.47,0,0,1,14,10.47Z" transform="translate(-2 -2)"/></svg>