<?xml version="1.0" encoding="UTF-8" standalone="yes"?>
<svg xmlns="http://www.w3.org/2000/svg" viewBox="0 0 24 24" width="24" height="24" fill="#000000">
  <path d="M 5.5 2 C 3.57 2 2 3.57 2 5.5 C 2 6.7118719 2.6201314 7.7817219 3.5585938 8.4101562 C 2.0768443 9.0444547 1 10.369531 1 12 L 3 12 C 3 10.973457 4.0301833 10 5.5 10 C 6.9698167 10 8 10.973457 8 12 L 10 12 C 10 10.369531 8.9231557 9.0444547 7.4414062 8.4101562 C 8.3798686 7.7817219 9 6.7118719 9 5.5 C 9 3.57 7.43 2 5.5 2 z M 12 2 L 12 4 C 15.761074 4 18.899539 6.5850063 19.763672 10.066406 L 21.705078 9.5839844 C 20.623211 5.2253846 16.678926 2 12 2 z M 18.5 12 C 16.57 12 15 13.57 15 15.5 C 15 16.711872 15.620131 17.781722 16.558594 18.410156 C 15.076844 19.044455 14 20.369531 14 22 L 16 22 C 16 20.973457 17.030183 20 18.5 20 C 19.969817 20 21 20.973457 21 22 L 23 22 C 23 20.369531 21.923156 19.044455 20.441406 18.410156 C 21.379869 17.781722 22 16.711872 22 15.5 C 22 13.57 20.43 12 18.5 12 z M 4.3652344 14.400391 L 2.4589844 15 C 3.7354996 19.059719 7.5328433 22 12 22 L 12 20 C 8.4091567 20 5.3847191 17.642672 4.3652344 14.400391 z"/>
</svg>
