<?xml version="1.0" encoding="UTF-8" standalone="yes"?>
<svg xmlns="http://www.w3.org/2000/svg" viewBox="0 0 24 24" width="24" height="24" fill="#000000">
  <path d="M 21.902344 8.355469 C 21.429688 5.617188 19.160156 3.4375 16.40625 3.0625 C 12.59375 2.542969 9.304688 5.355469 9.023438 9 L 9 9 L 9 11 L 19 11 L 19 10 C 19 9.449219 18.550781 9 18 9 L 11.050781 9 C 11.34375 6.40625 13.816406 4.464844 16.601563 5.132813 C 18.09375 5.488281 19.324219 6.644531 19.78125 8.105469 C 20.285156 9.710938 19.878906 11.199219 19 12.292969 L 19 12 L 9 12 L 9 15 L 5 11 L 6 10 L 5.707031 9.707031 C 5.316406 9.316406 4.683594 9.316406 4.292969 9.707031 L 2.707031 11.292969 C 2.316406 11.683594 2.316406 12.316406 2.707031 12.707031 L 3 13 L 4 12 L 9 21 C 9 21.550781 9.449219 22 10 22 L 18 22 C 18.550781 22 19 21.550781 19 21 L 19 14.96875 C 21.097656 13.621094 22.375 11.113281 21.902344 8.355469 Z"/>
</svg>
