<?xml version="1.0" encoding="UTF-8" standalone="yes"?>
<svg xmlns="http://www.w3.org/2000/svg" viewBox="0 0 30 30" width="30" height="30" fill="#000000">
  <path d="M 25 3 A 1 1 0 0 0 24.783203 3.0234375 C 21.730169 3.113062 16.119421 5.1615911 15.378906 5.4667969 C 14.250906 5.9317969 13.9035 6.8659375 13.6875 7.2109375 C 12.8295 8.5769375 12.463188 9.2735625 12.242188 9.1015625 C 11.988188 8.9035625 11.293344 8.3149531 10.777344 8.1269531 C 10.261344 7.9389531 9.8978125 8.0576406 9.5078125 8.1816406 C 9.1058125 7.9296406 7.8300781 7.8300781 7.8300781 7.8300781 C 7.8300781 7.8300781 7.9296406 9.1058125 8.1816406 9.5078125 C 8.0586406 9.8978125 7.9399531 10.259391 8.1269531 10.775391 C 8.3139531 11.291391 8.9035625 11.988188 9.1015625 12.242188 C 9.2735625 12.463188 8.5769375 12.828547 7.2109375 13.685547 C 6.8659375 13.902547 5.9317969 14.248953 5.4667969 15.376953 C 5.1614694 16.118742 3.1115235 21.734914 3.0234375 24.787109 A 1 1 0 0 0 4 26 A 1 1 0 0 0 4.0683594 25.996094 C 4.9100629 26.000093 7.6640947 26.095171 9.2226562 24.636719 C 10.914656 23.052719 10.675 19.327953 13 17.001953 C 13.876 17.001953 14.502547 17.762906 15.060547 18.753906 C 15.420547 19.393906 16 21 16 23 A 1 1 0 0 0 17 24 A 1 1 0 0 0 17.119141 23.992188 C 19.098093 23.898256 21.5 21.5 21.5 21.5 C 21.5 21.5 23.881582 19.113882 23.990234 17.138672 A 1 1 0 0 0 24 17.011719 A 1 1 0 0 0 24 17 A 1 1 0 0 0 23 16 C 21 16 19.393906 15.420547 18.753906 15.060547 C 17.762906 14.503547 17.001953 13.876 17.001953 13 C 19.327953 10.674 23.054672 10.914656 24.638672 9.2226562 C 26.089254 7.6725057 26.001039 4.9457266 25.996094 4.0878906 A 1 1 0 0 0 25 3 z"/>
</svg>
