<?xml version="1.0" encoding="UTF-8" standalone="yes"?>
<svg xmlns="http://www.w3.org/2000/svg" viewBox="0 0 24 24" width="50" height="50" fill="#000000">
  <path d="M 12.841797 1 C 12.710547 1.005 12.580938 1.0348438 12.460938 1.0898438 L 1.5800781 6.1601562 C 1.0800781 6.3901563 0.85984375 6.9804688 1.0898438 7.4804688 C 1.0898437 7.4804687 2.9405469 11.490625 4.0605469 13.890625 C 4.1205469 13.350625 4.2792969 12.829609 4.5292969 12.349609 C 5.6192969 10.279609 8.2903125 5.3195312 8.3203125 5.2695312 C 8.8503125 4.2895312 9.8609375 3.6894531 10.960938 3.6894531 C 11.450938 3.6894531 11.940859 3.8090625 12.380859 4.0390625 L 15.769531 5.8496094 C 14.789531 3.7496094 13.789062 1.5800781 13.789062 1.5800781 C 13.679062 1.3400781 13.470469 1.1505469 13.230469 1.0605469 C 13.105469 1.0155469 12.973047 0.995 12.841797 1 z M 11.052734 5.6953125 C 10.666484 5.6592187 10.275078 5.8532031 10.080078 6.2207031 C 10.080078 6.2207031 7.3907813 11.199297 6.3007812 13.279297 C 5.0107812 15.739297 8.3000781 20.269609 9.3300781 21.599609 C 9.5100781 21.819609 9.7607812 21.960469 10.050781 21.980469 C 10.470781 22.010469 11.160937 22.050781 11.960938 22.050781 C 14.310937 22.050781 17.690156 21.709141 18.660156 19.869141 C 19.740156 17.789141 22.419922 12.830312 22.419922 12.820312 C 22.549922 12.590312 22.58 12.320547 22.5 12.060547 C 22.42 11.810547 22.249766 11.590703 22.009766 11.470703 L 11.429688 5.8105469 C 11.309687 5.7455469 11.181484 5.7073437 11.052734 5.6953125 z M 12.693359 11.107422 C 12.822109 11.118672 12.950313 11.155703 13.070312 11.220703 C 13.560313 11.480703 13.740469 12.090078 13.480469 12.580078 C 13.220469 13.060078 12.620859 13.250234 12.130859 12.990234 C 11.640859 12.730234 11.460703 12.120859 11.720703 11.630859 C 11.915703 11.270859 12.307109 11.073672 12.693359 11.107422 z M 16.21875 12.996094 C 16.347969 13.008125 16.477109 13.044375 16.599609 13.109375 C 17.089609 13.369375 17.269766 13.980938 17.009766 14.460938 C 16.749766 14.950938 16.140156 15.129141 15.660156 14.869141 C 15.170156 14.609141 14.99 14.009531 15.25 13.519531 C 15.445 13.152031 15.831094 12.96 16.21875 12.996094 z M 11.189453 14.75 L 14.710938 16.640625 C 14.190938 17.610625 12.979766 17.980938 12.009766 17.460938 C 11.029766 16.940938 10.669453 15.72 11.189453 14.75 z"/>
</svg>