<?xml version="1.0" encoding="UTF-8" standalone="yes"?>
<svg xmlns="http://www.w3.org/2000/svg" width="50" height="50" viewBox="0 0 24 24" fill="#000000">
  <path d="M 12 0 L 11.398438 1.3984375 L 10 2 L 11.398438 2.6015625 L 12 4 L 12.601562 2.6015625 L 14 2 L 12.601562 1.3984375 L 12 0 z M 7.0097656 0.001953125 L 5.2089844 0.87304688 L 8.6835938 8.0585938 L 10.484375 7.1875 L 7.0097656 0.001953125 z M 16.970703 0.001953125 L 13.496094 7.1875 L 15.296875 8.0585938 L 18.771484 0.87304688 L 16.970703 0.001953125 z M 1.6035156 1.1640625 L -0.025390625 2.3242188 L 1.1425781 3.9667969 L 2.7714844 2.8066406 L 1.6035156 1.1640625 z M 22.376953 1.1640625 L 21.208984 2.8066406 L 22.839844 3.9667969 L 24.007812 2.3242188 L 22.376953 1.1640625 z M 3.9316406 4.4355469 L 2.3007812 5.5957031 L 4.0390625 8.0390625 L 5.6699219 6.8808594 L 3.9316406 4.4355469 z M 20.048828 4.4355469 L 18.310547 6.8808594 L 19.939453 8.0390625 L 21.679688 5.5957031 L 20.048828 4.4355469 z M 1 10.003906 L 1 21.003906 C 1 22.108906 1.895 22.970703 3 22.970703 L 10.257812 22.970703 C 10.599133 23.584735 11.247319 24.003906 12 24.003906 C 12.764525 24.003906 13.42121 23.5714 13.757812 22.941406 L 21 22.941406 C 22.105 22.941406 23 22.108906 23 21.003906 L 23 10.003906 L 16 10.003906 C 14.344 10.003906 13 11.347906 13 13.003906 L 13 21.003906 L 11 21.003906 L 11 13.003906 C 11 11.347906 9.656 10.003906 8 10.003906 L 1 10.003906 z"/>
</svg>