<?xml version="1.0" encoding="UTF-8" standalone="yes"?>
<svg xmlns="http://www.w3.org/2000/svg" viewBox="0 0 24 24" width="50" height="50" fill="#000000">
  <path d="M 8.5 4 C 6.5788117 4 5 5.5788117 5 7.5 C 5 8.0380102 5.1349937 8.5428438 5.3554688 9 L 5 9 L 4.5 9 C 2.5788117 9 1 10.578812 1 12.5 C 1 14.374377 2.505898 15.911981 4.3632812 15.986328 C 4.1384898 16.447097 4 16.956401 4 17.5 C 4 19.421188 5.5788117 21 7.5 21 L 8 21 L 20 21 L 20 19 L 8 19 L 7.5 19 C 6.6591883 19 6 18.340812 6 17.5 C 6 16.659188 6.6591883 16 7.5 16 L 10 16 L 10 18 L 13 16.5 L 16 18 L 16 16 L 20 16 L 20 14 L 16 14 L 16 11 L 18 11 L 20 11 L 20 9 L 18 9 L 16 9 L 10 9 L 8.5 9 C 7.6591883 9 7 8.3408117 7 7.5 C 7 6.6591883 7.6591883 6 8.5 6 L 9 6 L 20 6 L 20 4 L 9 4 L 8.5 4 z M 4.5 11 L 5 11 L 10 11 L 10 14 L 4.5 14 C 3.6591883 14 3 13.340812 3 12.5 C 3 11.659188 3.6591883 11 4.5 11 z"/>
</svg>