<?xml version="1.0" encoding="UTF-8" standalone="yes"?>
<svg xmlns="http://www.w3.org/2000/svg" viewBox="0 0 24 24" width="50" height="50" fill="#000000">
  <path d="M 16 2 C 14.894531 2 14 2.894531 14 4 L 14 11 L 16 9 L 20 9 C 21.105469 9 22 8.105469 22 7 L 22 4 C 22 2.894531 21.105469 2 20 2 Z M 9.5 8 C 7.566406 8 6 9.566406 6 11.5 C 6 13.433594 7.566406 15 9.5 15 C 11.433594 15 13 13.433594 13 11.5 C 13 9.566406 11.433594 8 9.5 8 Z M 9.5 17 C 3.78125 17 2 20.3125 2 20.3125 L 2 22 L 17 22 L 17 20.3125 C 17 20.3125 15.21875 17 9.5 17 Z"/>
</svg>