<?xml version="1.0" encoding="UTF-8" standalone="yes"?>
<svg xmlns="http://www.w3.org/2000/svg" viewBox="0 0 24 24" width="50" height="50" fill="#000000">
  <path d="M 12 2 C 6.5 2 2 6.5 2 12 C 2 17.5 6.5 22 12 22 C 17.5 22 22 17.5 22 12 C 22 6.5 17.5 2 12 2 Z M 12 4 C 16.398438 4 20 7.601563 20 12 C 20 16.398438 16.398438 20 12 20 C 7.601563 20 4 16.398438 4 12 C 4 7.601563 7.601563 4 12 4 Z M 12 5 C 8.101563 5 5 8.101563 5 12 C 5 15.898438 8.101563 19 12 19 C 15.898438 19 19 15.898438 19 12 C 19 8.101563 15.898438 5 12 5 Z M 9.5 8 C 10.300781 8 11 8.699219 11 9.5 C 11 10.300781 10.300781 11 9.5 11 C 8.699219 11 8 10.300781 8 9.5 C 8 8.699219 8.699219 8 9.5 8 Z M 14.5 8 C 15.300781 8 16 8.699219 16 9.5 C 16 10.300781 15.300781 11 14.5 11 C 13.699219 11 13 10.300781 13 9.5 C 13 8.699219 13.699219 8 14.5 8 Z M 9.5 13 C 10.300781 13 11 13.699219 11 14.5 C 11 15.300781 10.300781 16 9.5 16 C 8.699219 16 8 15.300781 8 14.5 C 8 13.699219 8.699219 13 9.5 13 Z M 14.5 13 C 15.300781 13 16 13.699219 16 14.5 C 16 15.300781 15.300781 16 14.5 16 C 13.699219 16 13 15.300781 13 14.5 C 13 13.699219 13.699219 13 14.5 13 Z"/>
</svg>