<?xml version="1.0" encoding="UTF-8" standalone="yes"?>
<svg xmlns="http://www.w3.org/2000/svg" viewBox="0 0 24 24" width="50" height="50" fill="#000000">
  <path d="M 8 5 L 8 10 L 10 10 L 10 5 L 8 5 z M 4 6 L 4 10 L 6 10 L 6 6 L 4 6 z M 12 6 L 12 10 L 14 10 L 14 6 L 12 6 z M 18.523438 9 C 17.590438 9.002 16.770266 9.6749375 16.572266 10.585938 L 16.265625 12 L 0.005859375 12 L 1.0839844 17.392578 C 1.2689844 18.323578 2.0939219 19 3.0449219 19 L 15.181641 19 C 16.130641 19 16.953672 18.324203 17.138672 17.408203 L 18.527344 11 L 24 11 L 23.998047 9 L 18.523438 9 z"/>
</svg>