<?xml version="1.0" encoding="UTF-8" standalone="yes"?>
<svg xmlns="http://www.w3.org/2000/svg" viewBox="0 0 24 24" width="50" height="50" fill="#000000">
  <path d="M 17.46875 3 C 14.792969 3 13.269531 6.355469 13 8 L 8 8 C 7.417969 8 6.867188 8.207031 6.40625 8.5 C 6.085938 8.296875 5.527344 8 4.84375 8 C 1.9375 8 2 12.125 2 15 L 4 15 C 3.886719 13.453125 3.734375 10.675781 4 10 C 4.269531 9.316406 4.734375 9.089844 5.75 9.03125 C 5.285156 9.558594 5 10.246094 5 11 C 5 11.84375 5.371094 12.609375 5.9375 13.15625 C 5.941406 13.160156 6.003906 13.226563 6.03125 13.25 C 6.421875 13.742188 6 16 6 16 L 6 21 L 8 21 L 8 16 L 9 14 L 14 14 L 14 21 L 16 21 L 16 13 C 16.410156 12.453125 16.984375 11.734375 17 11 C 17.023438 9.820313 17 9.375 17 8 C 17 6.792969 17.011719 6.175781 17.59375 5.90625 C 17.070313 6.660156 17.125 8 19 8 L 21.03125 10.03125 L 22 9 L 20 6 L 21 5 C 21 5 20.238281 3 17.46875 3 Z M 17.375 11 C 17.363281 11.574219 16.914063 12.695313 16.40625 13 C 16.75 13.105469 19 13.5 19 13.5 L 19 16 L 21 16 L 21 12.25 C 20.320313 12.023438 17.375 11 17.375 11 Z M 9.78125 14.3125 C 9.632813 14.707031 9.230469 15.382813 9 16 L 9 21 L 11 21 L 11 16 L 11.8125 14.3125 Z"/>
</svg>