<?xml version="1.0" encoding="UTF-8" standalone="yes"?>
<svg xmlns="http://www.w3.org/2000/svg" viewBox="0 0 24 24" width="50" height="50" fill="#000000">
  <path d="M 12.208984 1.3769531 C 11.251471 1.39406 10.309463 1.4916016 9.4394531 1.6132812 C 7.1194278 1.9377604 5.2890625 2.5019531 5.2890625 2.5019531 L 5.8769531 4.4140625 C 5.8769531 4.4140625 7.5680722 3.8942709 9.7167969 3.59375 C 11.865522 3.2932291 14.442471 3.2813423 15.980469 4.0253906 C 16.731147 4.3883888 17.027998 4.7296141 17.144531 4.9648438 C 17.261064 5.2000734 17.262154 5.3983149 17.171875 5.6992188 C 16.991325 6.3010262 16.3621 7.011428 15.970703 7.4980469 A 1.0001 1.0001 0 0 0 15.96875 7.4980469 C 14.856953 8.8812841 14.942908 10.87146 16.244141 11.939453 C 17.545373 13.007446 19.657791 13.156691 22.277344 12.140625 L 21.554688 10.275391 C 19.340239 11.134325 18.014439 10.803585 17.513672 10.392578 C 17.012904 9.9815709 16.933089 9.4937159 17.529297 8.7519531 L 17.527344 8.7519531 C 17.73204 8.497572 18.699987 7.55988 19.085938 6.2734375 C 19.278911 5.6302162 19.305327 4.8245516 18.935547 4.078125 C 18.565767 3.3316984 17.864884 2.7146112 16.851562 2.2246094 C 15.725061 1.6796336 14.451326 1.4458424 13.169922 1.3886719 C 12.849571 1.3743792 12.528156 1.3712508 12.208984 1.3769531 z M 3.2363281 5.1132812 A 1.0001 1.0001 0 0 0 2.3183594 5.7949219 C 1.98473 6.7910776 2.0341111 8.0750811 2.3886719 9.4785156 C 2.7432327 10.88195 3.4670918 12.388094 4.9101562 13.212891 C 5.593481 13.603282 6.3806423 13.806499 7.1601562 13.806641 C 7.2465176 14.172523 7.4325003 14.518438 7.7011719 14.787109 A 1.0001 1.0001 0 0 0 7.75 14.833984 L 16.355469 22.34375 A 1.0001 1.0001 0 0 0 16.361328 22.349609 C 16.828716 22.751929 17.404236 22.878548 17.978516 22.828125 L 18.046875 22.888672 L 18.113281 22.822266 C 18.355986 22.788073 18.596988 22.728867 18.828125 22.630859 A 1.0001 1.0001 0 0 0 18.857422 22.632812 L 18.851562 22.621094 C 18.883539 22.607057 18.918123 22.602409 18.951172 22.591797 L 18.857422 22.632812 A 1.0001 1.0001 0 0 0 19.591797 22.3125 A 1.0001 1.0001 0 0 0 19.59375 22.308594 C 20.417908 21.412686 20.269179 20.062012 19.503906 19.183594 A 1.0001 1.0001 0 0 0 19.501953 19.183594 L 11.988281 10.589844 A 1.0001 1.0001 0 0 0 11.941406 10.541016 C 11.598736 10.199215 11.131472 9.985172 10.65625 9.9511719 C 10.648423 9.9506119 10.640644 9.9516342 10.632812 9.9511719 C 10.628381 9.9151863 10.63026 9.8774871 10.625 9.8417969 C 10.484181 8.8862621 10.06159 7.9681949 9.2988281 7.328125 C 8.0866788 6.3106122 6.6427243 6.4053983 5.6894531 6.3671875 C 5.2128176 6.3480821 4.847668 6.2967034 4.6386719 6.2089844 C 4.4296757 6.1212653 4.3305534 6.0581226 4.1875 5.7207031 A 1.0001 1.0001 0 0 0 3.2363281 5.1132812 z M 4.2910156 8.1289062 C 4.745946 8.2501075 5.2040041 8.3489855 5.609375 8.3652344 C 6.6831039 8.4082734 7.4758212 8.4078874 8.0136719 8.859375 C 8.2829096 9.0853051 8.5673504 9.61105 8.6445312 10.134766 C 8.7217122 10.658481 8.5998732 11.105603 8.4082031 11.314453 C 7.8591617 11.912707 6.7817624 11.978985 5.9023438 11.476562 C 5.1584082 11.05136 4.6020642 10.072597 4.328125 8.9882812 C 4.2361193 8.6241014 4.3173467 8.4805267 4.2910156 8.1289062 z M 10.574219 12.013672 L 12.136719 13.798828 L 10.958984 14.976562 L 9.171875 13.417969 L 10.574219 12.013672 z"/>
</svg>