<?xml version="1.0" encoding="UTF-8" standalone="yes"?>
<svg xmlns="http://www.w3.org/2000/svg" viewBox="0 0 24 24" width="50" height="50" fill="#000000">
  <path d="M 14 2 A 2 2 0 0 0 12 4 A 2 2 0 0 0 14 6 A 2 2 0 0 0 16 4 A 2 2 0 0 0 14 2 z M 11.976562 6.328125 C 11.713411 6.327694 11.456663 6.3577124 11.203125 6.4003906 L 11.199219 6.4003906 L 11.199219 6.4023438 C 11.162753 6.4085148 11.124112 6.4050842 11.087891 6.4121094 C 10.514796 6.5232586 9.97475 6.7439236 9.4863281 7.046875 L 9.4863281 7.0429688 C 9.4835181 7.0446488 9.4813156 7.0471381 9.4785156 7.0488281 C 9.4760556 7.0503581 9.4731631 7.0511944 9.4707031 7.0527344 L 6.5136719 8.9003906 L 7.5566406 8.9003906 C 7.2798082 9.2803534 6.9874551 9.6494733 6.7890625 10.085938 L 6.2890625 11.185547 L 8.1113281 12.013672 L 8.6113281 10.914062 C 9.0296824 9.9936836 9.6893506 9.2538392 10.511719 8.7597656 L 10.5 8.8007812 L 8.6992188 13.199219 L 8.7109375 13.203125 L 7.5878906 15.689453 L 9.4121094 16.511719 L 10.664062 13.732422 L 11.574219 13.978516 L 9.3417969 19.912109 C 9.1989874 19.961702 9.0711142 20 9 20 C 8.8352873 20 8.4051216 19.848915 7.9042969 19.607422 A 2 2 0 0 0 8 19 A 2 2 0 0 0 6 17 A 2 2 0 0 0 4 19 A 2 2 0 0 0 4.1035156 19.625 C 3.6401496 19.853736 3.2574435 20 3 20 L 2 20 L 2 22 L 3 22 C 3.8587963 22 4.5261085 21.651985 5.0410156 21.394531 C 5.5559227 21.137078 5.9434524 21 6 21 C 6.0565476 21 6.4948171 21.146931 7.0175781 21.400391 C 7.5403392 21.653851 8.1666667 22 9 22 C 9.8333333 22 10.447266 21.644531 10.947266 21.394531 C 11.447266 21.144531 11.833333 21 12 21 C 12.166667 21 12.501977 21.134652 12.994141 21.388672 C 13.486304 21.642692 14.141204 22 15 22 C 15.858796 22 16.509766 21.644531 17.009766 21.394531 C 17.509766 21.144531 17.858796 21 18.125 21 C 18.244766 21 18.597034 21.132919 19.076172 21.384766 C 19.55531 21.636612 20.166667 22 21 22 L 22 22 L 22 20 L 21 20 C 20.833333 20 20.479926 19.863388 20.007812 19.615234 C 19.5357 19.367081 18.950234 19 18.125 19 C 17.266204 19 16.615234 19.355469 16.115234 19.605469 C 15.615234 19.855469 15.266204 20 15 20 C 14.733796 20 14.388696 19.857308 13.912109 19.611328 C 13.435523 19.365348 12.833333 19 12 19 C 11.934062 19 11.877696 19.013355 11.814453 19.017578 L 14.013672 13.181641 L 15.548828 9.2285156 C 15.693373 9.290757 15.817041 9.3399687 15.980469 9.4101562 L 20.523438 11.878906 L 21.476562 10.121094 L 16.835938 7.5996094 L 16.792969 7.5800781 C 16.124657 7.293665 15.439006 6.9388311 14.541016 6.8105469 L 14.628906 6.8261719 L 12.912109 6.421875 L 12.896484 6.4199219 C 12.58677 6.3579789 12.278951 6.3286203 11.976562 6.328125 z"/>
</svg>