<?xml version="1.0" encoding="UTF-8" standalone="yes"?>
<svg xmlns="http://www.w3.org/2000/svg" viewBox="0 0 24 24" width="50" height="50" fill="#000000">
  <path d="M 7 4 C 5.346 4 4 5.346 4 7 L 4 8.5722656 C 4.762 9.0352656 5.3802812 9.7543906 5.7382812 10.650391 L 6.6796875 13 L 17.318359 13 L 18.3125 10.517578 C 18.6515 9.6715781 19.254 8.9995469 20 8.5605469 L 20 7 C 20 5.346 18.654 4 17 4 L 7 4 z M 22.027344 10 C 21.208344 10 20.471969 10.498766 20.167969 11.259766 L 18.671875 15 L 5.3222656 15 L 3.8808594 11.392578 C 3.5888594 10.662578 2.9421563 10.083766 2.1601562 10.009766 C 1.7601562 9.9717656 1.3715781 10.049234 1.0175781 10.240234 C 0.10057813 10.732234 -0.22684375 11.899234 0.16015625 12.865234 L 1.859375 17.115234 C 2.315375 18.253234 3.4185313 19 4.6445312 19 L 5 19 L 5 21 L 7 21 L 7 19 L 17 19 L 17 21 L 19 21 L 19 19 L 19.347656 19 C 20.574656 19 21.677813 18.252281 22.132812 17.113281 L 23.841797 12.841797 C 24.211797 11.915797 23.919453 10.806969 23.064453 10.292969 C 22.744453 10.099969 22.392344 10 22.027344 10 z"/>
</svg>