<?xml version="1.0" encoding="UTF-8" standalone="yes"?>
<svg xmlns="http://www.w3.org/2000/svg" viewBox="0 0 24 24" width="50" height="50" fill="#000000">
  <path d="M 12 2 C 10.894531 2 10 2.894531 10 4 C 10 5.105469 10.894531 6 12 6 C 13.105469 6 14 5.105469 14 4 C 14 2.894531 13.105469 2 12 2 Z M 3 7 L 3 9 L 9 9 L 9 22 L 11 22 L 11 15 L 13.625 15 L 14.8125 16.1875 C 14.914063 16.289063 14.886719 16.5 14.6875 16.5 L 12 17.1875 L 12 19.3125 L 15.40625 18.40625 C 16.207031 18.207031 16.804688 17.488281 16.90625 16.6875 C 17.105469 15.988281 16.8125 15.40625 16.3125 14.90625 L 15 13.625 L 15 9 L 21 9 L 21 7 Z"/>
</svg>