<?xml version="1.0" encoding="UTF-8" standalone="yes"?>
<svg xmlns="http://www.w3.org/2000/svg" viewBox="0 0 24 24" width="50" height="50" fill="#000000">
  <path d="M 20.53125 3 L 7.4375 10.75 L 10.375 15.6875 L 11.6875 15.78125 L 11.8125 14.4375 L 13.15625 14.53125 L 13.25 13.1875 L 14.59375 13.3125 L 14.6875 11.96875 L 16.03125 12.0625 L 16.125 10.71875 L 17.46875 10.8125 L 17.59375 9.46875 L 18.9375 9.59375 L 19.03125 8.25 L 20.375 8.34375 L 20.46875 7 L 21.8125 7.09375 L 22 5.46875 Z M 6.625 11.25 L 3.34375 13.1875 C 2.441406 13.722656 2.152344 14.878906 2.6875 15.78125 L 5.125 19.875 C 5.660156 20.777344 6.816406 21.097656 7.71875 20.5625 L 9.375 19.59375 L 10.03125 16.96875 Z M 5.96875 13.84375 L 8.40625 17.9375 L 6.75 18.90625 L 4.3125 14.8125 Z"/>
</svg>