<?xml version="1.0" encoding="UTF-8" standalone="yes"?>
<svg xmlns="http://www.w3.org/2000/svg" viewBox="0 0 24 24" width="50" height="50" fill="#000000">
  <path d="M 9 2 C 9 3.277344 8.78125 3.28125 8.28125 3.78125 C 7.78125 4.28125 7 5.277344 7 7 L 9 7 C 9 5.722656 9.21875 5.71875 9.71875 5.21875 C 10.21875 4.71875 11 3.722656 11 2 Z M 12.6875 3 C 12.6875 5.398438 11 5.398438 11 7 L 13 7 C 13 5.5 14.6875 5.699219 14.6875 3 Z M 3 8 L 4.8125 20.3125 C 4.914063 21.3125 5.8125 22 6.8125 22 L 13.3125 22 C 14.3125 22 15.113281 21.3125 15.3125 20.3125 L 15.90625 16 L 17.40625 16 C 18.859375 16 20.199219 14.957031 20.375 13.4375 C 20.375 13.429688 20.367188 13.410156 20.375 13.40625 L 20.6875 11.4375 L 20.6875 11.375 C 20.832031 9.628906 19.5 8 17.6875 8 Z M 16.71875 10 L 17.6875 10 C 18.257813 10 18.738281 10.53125 18.71875 11.15625 C 18.71875 11.179688 18.71875 11.195313 18.71875 11.21875 L 18.40625 13.15625 L 18.40625 13.1875 C 18.359375 13.640625 17.941406 14 17.40625 14 L 16.1875 14 Z"/>
</svg>