<?xml version="1.0" encoding="UTF-8" standalone="yes"?>
<svg xmlns="http://www.w3.org/2000/svg" viewBox="0 0 24 24" width="50" height="50" fill="#000000">
  <path d="M 17 4 C 15.895 4 15 4.895 15 6 L 15 18 C 15 19.105 15.895 20 17 20 L 19 20 C 20.105 20 21 19.105 21 18 L 21 6 C 21 4.895 20.105 4 19 4 L 17 4 z M 5 5 C 3.895 5 3 5.895 3 7 L 3 16 C 3 17.105 3.895 18 5 18 L 8 18 L 8 20 L 13 20 L 13 18 L 13 16 L 5 16 L 5 7 L 13 7 L 13 5 L 5 5 z M 18 15 C 18.552 15 19 15.448 19 16 C 19 16.552 18.552 17 18 17 C 17.448 17 17 16.552 17 16 C 17 15.448 17.448 15 18 15 z"/>
</svg>