<?xml version="1.0" encoding="UTF-8" standalone="yes"?>
<svg xmlns="http://www.w3.org/2000/svg" viewBox="0 0 24 24" width="50" height="50" fill="#000000">
  <path d="M 14 2 C 10.84375 2 8.046875 3.945313 6.78125 6.6875 C 3.976563 7.933594 2 10.742188 2 14 C 2 18.40625 5.59375 22 10 22 C 13.257813 22 16.066406 20.023438 17.3125 17.21875 C 20.03125 15.964844 22 13.234375 22 10 C 22 5.554688 18.34375 2 14 2 Z M 14 4 C 15.566406 4 17.011719 4.613281 18.09375 5.625 C 18.042969 5.746094 18 5.863281 18 6 C 18 6.550781 18.449219 7 19 7 C 19.058594 7 19.101563 6.976563 19.15625 6.96875 C 19.53125 7.601563 19.785156 8.304688 19.90625 9.0625 C 19.777344 9.027344 19.636719 9 19.5 9 C 18.671875 9 18 9.671875 18 10.5 C 18 11.328125 18.671875 12 19.5 12 C 19.550781 12 19.605469 12.003906 19.65625 12 C 19.308594 12.941406 18.707031 13.753906 17.96875 14.40625 C 17.976563 14.269531 18 14.136719 18 14 C 18 11.75 17.066406 9.707031 15.5625 8.25 C 15.835938 7.90625 16 7.472656 16 7 C 16 5.894531 15.105469 5 14 5 C 13.136719 5 12.40625 5.546875 12.125 6.3125 C 11.445313 6.125 10.738281 6 10 6 C 9.863281 6 9.730469 6.023438 9.59375 6.03125 C 10.699219 4.8125 12.289063 4 14 4 Z M 10 8 C 13.324219 8 16 10.675781 16 14 C 16 14.632813 15.898438 15.238281 15.71875 15.8125 C 15.714844 15.824219 15.691406 15.832031 15.6875 15.84375 C 15.675781 15.863281 15.664063 15.886719 15.65625 15.90625 C 15.515625 16.082031 15.4375 16.304688 15.4375 16.53125 C 14.488281 18.585938 12.421875 20 10 20 C 8.160156 20 6.535156 19.167969 5.4375 17.875 C 5.761719 17.710938 6 17.390625 6 17 C 6 16.449219 5.550781 16 5 16 C 4.78125 16 4.601563 16.101563 4.4375 16.21875 C 4.164063 15.53125 4 14.785156 4 14 C 4 11.578125 5.414063 9.511719 7.46875 8.5625 C 7.476563 8.558594 7.492188 8.566406 7.5 8.5625 C 7.742188 8.5625 7.976563 8.472656 8.15625 8.3125 C 8.738281 8.125 9.351563 8 10 8 Z M 8 10 C 6.894531 10 6 10.894531 6 12 C 6 13.105469 6.894531 14 8 14 C 9.105469 14 10 13.105469 10 12 C 10 10.894531 9.105469 10 8 10 Z M 12 10 C 11.449219 10 11 10.449219 11 11 C 11 11.550781 11.449219 12 12 12 C 12.550781 12 13 11.550781 13 11 C 13 10.449219 12.550781 10 12 10 Z M 13 14.5 C 12.171875 14.5 11.5 15.171875 11.5 16 C 11.5 16.828125 12.171875 17.5 13 17.5 C 13.828125 17.5 14.5 16.828125 14.5 16 C 14.5 15.171875 13.828125 14.5 13 14.5 Z M 10 17 C 9.449219 17 9 17.449219 9 18 C 9 18.550781 9.449219 19 10 19 C 10.550781 19 11 18.550781 11 18 C 11 17.449219 10.550781 17 10 17 Z"/>
</svg>