<?xml version="1.0" encoding="UTF-8" standalone="yes"?>
<svg xmlns="http://www.w3.org/2000/svg" viewBox="0 0 24 24" width="24" height="24" fill="#000000">
  <path d="M 10 3 C 9.097656 3 8.246094 3.421875 7.6875 4.09375 C 7.460938 4.039063 7.238281 4 7 4 C 5.347656 4 4 5.347656 4 7 L 4 7.15625 C 2.835938 7.570313 2.03125 8.695313 2.03125 10 C 2.03125 11.304688 2.835938 12.429688 4 12.84375 L 4 21 L 6 21 L 6 15.8125 C 6.316406 15.925781 6.644531 16 7 16 L 7 21 L 9 21 L 9 16.8125 C 9.316406 16.925781 9.648438 17 10 17 C 10.753906 17 11.460938 16.703125 12 16.21875 L 12 21 L 14 21 L 14 15.8125 C 14.375 15.679688 14.710938 15.480469 15 15.21875 L 15 21 L 17 21 L 17 13.8125 C 17.125 13.765625 17.257813 13.71875 17.375 13.65625 C 18.183594 13.871094 19.179688 14.003906 20 14 C 21.210938 13.988281 21.878906 13.671875 22 13 C 22.039063 12.769531 22.035156 12.320313 21.84375 12 C 21.957031 11.519531 21.609375 10.671875 21 10 C 20.492188 9.4375 19.816406 9 19 9 C 19 7.347656 17.652344 6 16 6 L 15.84375 6 C 15.429688 4.835938 14.304688 4 13 4 C 12.761719 4 12.539063 4.039063 12.3125 4.09375 C 11.753906 3.421875 10.902344 3 10 3 Z M 10 5 C 11.5 5 11.375 6.90625 11.375 6.90625 C 11.375 6.90625 11.917969 6 13 6 C 13.550781 6 14 6.449219 14 7 L 14 8 L 16 8 C 16.550781 8 17 8.449219 17 9 C 14.960938 8.070313 14.042969 9.578125 14.03125 10 C 14.019531 10.449219 15.46875 10.058594 16 10 C 15.921875 10.125 15.566406 11.121094 15.625 12 L 14 12 L 14 13 C 14 13.550781 13.550781 14 13 14 C 12.042969 14 11.375 13.09375 11.375 13.09375 C 11.375 13.09375 11.625 15 10 15 C 8.5 15 8.625 13.09375 8.625 13.09375 C 8.625 13.09375 8.125 14 7 14 C 5.75 14 6 12 6 12 L 6 11 L 5 11 C 4.449219 11 4 10.550781 4 10 C 4 9.449219 4.449219 9 5 9 L 6 9 L 6 8 C 6 8 5.832031 6 7 6 C 7.875 6 8.625 6.90625 8.625 6.90625 C 8.625 6.90625 8.582031 5 10 5 Z M 19.5 11 C 19.777344 11 20 11.222656 20 11.5 C 20 11.777344 19.777344 12 19.5 12 C 19.222656 12 19 11.777344 19 11.5 C 19 11.222656 19.222656 11 19.5 11 Z"/>
</svg>
