<?xml version="1.0" encoding="UTF-8" standalone="yes"?>
<svg xmlns="http://www.w3.org/2000/svg" viewBox="0 0 24 24" width="24" height="24" fill="#000000">
  <path d="M 10 2 C 8.898438 2 8 2.898438 8 4 L 8 5 L 5.625 5 C 5.132813 5 4.691406 5.34375 4.59375 5.8125 L 4.0625 8.4375 C 3.867188 9.386719 4.382813 10.332031 5.3125 10.6875 C 5.804688 10.875 6.371094 11.09375 7 11.28125 L 7 11 C 7 10.449219 7.449219 10 8 10 C 8.550781 10 9 10.449219 9 11 L 9 11.75 C 9.878906 11.898438 10.867188 12 12 12 C 13.128906 12 14.121094 11.898438 15 11.75 L 15 11 C 15 10.449219 15.449219 10 16 10 C 16.550781 10 17 10.449219 17 11 L 17 11.28125 C 17.632813 11.089844 18.195313 10.878906 18.6875 10.6875 C 19.617188 10.332031 20.132813 9.386719 19.9375 8.4375 L 19.40625 5.8125 C 19.308594 5.34375 18.867188 5 18.375 5 L 16 5 L 16 4 C 16 2.898438 15.101563 2 14 2 Z M 10 4 L 14 4 L 14 5 L 10 5 Z M 5 11.5625 L 5 18.40625 C 5 18.40625 4 15.914063 4 12.3125 C 2.894531 12.3125 2 13.507813 2 15 C 2 18.480469 3.894531 22 5 22 L 19 22 C 20.105469 22 22 18.480469 22 15 C 22 13.507813 21.105469 12.3125 20 12.3125 C 20 15.914063 19 18.40625 19 18.40625 L 19 11.5625 C 18.945313 11.589844 17.765625 12.050781 17 12.28125 L 17 13 C 17 13.550781 16.550781 14 16 14 C 15.449219 14 15 13.550781 15 13 L 15 12.75 C 14.121094 12.902344 13.128906 13 12 13 C 10.871094 13 9.878906 12.902344 9 12.75 L 9 13 C 9 13.550781 8.550781 14 8 14 C 7.449219 14 7 13.550781 7 13 L 7 12.28125 C 6.234375 12.050781 5.054688 11.589844 5 11.5625 Z"/>
</svg>
