<?xml version="1.0" encoding="UTF-8" standalone="yes"?>
<svg xmlns="http://www.w3.org/2000/svg" viewBox="0 0 50 50" width="50" height="50" fill="#000000">
  <path d="M 22.5 4 C 16.699219 4 12 8.699219 12 14.5 L 12 15 C 7.601563 15 4 18.601563 4 23 C 4 27.398438 7.601563 31 12 31 L 18.699219 31 L 20 29 L 16 29 L 23 20 L 28 20 L 21 27 L 26 27 L 21.597656 31 L 25.902344 31 L 29 27 L 34.097656 27 L 30.097656 31 L 36 31 C 41.5 31 46 26.5 46 21 C 46 15.5 41.5 11 36 11 C 34.800781 11 33.699219 11.199219 32.597656 11.597656 C 31.300781 7.101563 27.300781 4 22.5 4 Z M 30.097656 31 L 25.902344 31 L 22 36 L 26.097656 36 L 21 44 L 32.097656 34 L 27.097656 34 Z M 21.597656 31 L 18.699219 31 L 14.902344 37 Z"/>
</svg>
