<?xml version="1.0" encoding="UTF-8" standalone="yes"?>
<svg xmlns="http://www.w3.org/2000/svg" viewBox="0 0 24 24" width="24" height="24" fill="#000000">
  <path d="M 12 2 C 6.488281 2 2 6.488281 2 12 C 2 17.511719 6.488281 22 12 22 C 17.511719 22 22 17.511719 22 12 C 22 6.488281 17.511719 2 12 2 Z M 14.96875 4.5625 C 17.921875 5.738281 20 8.621094 20 12 C 20 12.203125 19.984375 12.394531 19.96875 12.59375 C 18.542969 10.855469 16.445313 10.128906 15.40625 9.875 C 15.472656 10.070313 15.5 10.28125 15.5 10.5 C 15.5 11.25 15.078125 11.90625 14.46875 12.25 C 15.445313 13.648438 16.433594 16.457031 16.875 18.34375 C 15.527344 19.382813 13.839844 20 12 20 C 10.960938 20 9.972656 19.796875 9.0625 19.4375 C 10.46875 17.480469 12.402344 14.234375 12.9375 12.40625 C 12.109375 12.160156 11.5 11.40625 11.5 10.5 C 11.5 10.292969 11.535156 10.09375 11.59375 9.90625 C 8.691406 10.34375 6.082031 11.742188 4.1875 13.8125 C 4.054688 13.230469 4 12.621094 4 12 C 4 8.703125 5.972656 5.882813 8.8125 4.65625 C 10.011719 5.628906 11.632813 7.507813 12.375 8.84375 C 12.695313 8.625 13.082031 8.5 13.5 8.5 C 13.824219 8.5 14.136719 8.582031 14.40625 8.71875 C 14.644531 7.808594 14.988281 6.027344 14.96875 4.5625 Z"/>
</svg>
