<?xml version="1.0" encoding="UTF-8" standalone="yes"?>
<svg xmlns="http://www.w3.org/2000/svg" viewBox="0 0 24 24" width="50" height="50" fill="#000000">
  <path d="M 12 2 L 10.25 5 L 10.28125 5 C 10.113281 5.292969 10 5.640625 10 6 C 10 7.050781 10.8125 7.921875 11.84375 8 C 11.878906 8 12.121094 8 12.15625 8 C 13.1875 7.921875 14 7.050781 14 6 C 14 5.640625 13.886719 5.292969 13.71875 5 L 13.75 5 Z M 9 10 C 8.449219 10 8 10.449219 8 11 C 8 11.550781 8.449219 12 9 12 L 9 20 L 4 20 C 4 21.101563 4.898438 22 6 22 L 18 22 C 19.101563 22 20 21.101563 20 20 L 15 20 L 15 12 C 15.550781 12 16 11.550781 16 11 C 16 10.449219 15.550781 10 15 10 Z"/>
</svg>