<?xml version="1.0" encoding="UTF-8" standalone="yes"?>
<svg xmlns="http://www.w3.org/2000/svg" viewBox="0 0 24 24" width="24" height="24" fill="#000000">
  <path d="M 12 5 C 10.894531 5 10 5.894531 10 7 C 10 8.105469 10.894531 9 12 9 C 13.105469 9 14 8.105469 14 7 C 14 5.894531 13.105469 5 12 5 Z M 10.8125 10 C 9.597656 10 8.546875 10.753906 8.09375 11.8125 L 8.03125 11.9375 L 7.34375 14.625 C 7.257813 14.929688 6.96875 15.21875 6.5625 15.34375 C 6.554688 15.347656 6.539063 15.339844 6.53125 15.34375 L 3.75 16.03125 L 4.25 17.96875 L 7.03125 17.28125 L 7.0625 17.28125 L 7.0625 17.25 C 8.039063 16.96875 8.9375 16.273438 9.25 15.1875 L 9.25 15.15625 L 9.28125 15.15625 L 9.5 14.28125 L 9.5 17 L 6.5 19.59375 C 6.199219 19.894531 6 20.195313 6 20.59375 C 6 21.394531 6.605469 22 7.40625 22 L 9 22 L 9 20.09375 C 9 19.492188 9.492188 19 10.09375 19 L 10.59375 19 C 11.695313 18.898438 12.898438 19.101563 14 19.5 L 15 19.8125 L 10 20 L 10 22 L 16.59375 22 C 17.394531 22 18 21.394531 18 20.59375 C 18 20.195313 17.800781 19.792969 17.5 19.59375 L 14.5 17 L 14.5 14.28125 L 14.71875 15.15625 L 14.75 15.15625 L 14.75 15.1875 C 15.019531 16.136719 15.789063 17.054688 16.96875 17.25 L 16.96875 17.28125 L 19.75 17.96875 L 20.25 16.03125 L 17.4375 15.34375 L 17.375 15.3125 L 17.3125 15.3125 C 16.957031 15.269531 16.777344 15.058594 16.65625 14.65625 L 16.65625 14.625 L 15.96875 11.9375 L 15.90625 11.8125 C 15.453125 10.753906 14.402344 10 13.1875 10 Z"/>
</svg>
