<?xml version="1.0" encoding="utf-8"?>
<!-- Generator: Adobe Illustrator 23.1.1, SVG Export Plug-In . SVG Version: 6.00 Build 0)  -->
<svg version="1.1" id="Layer_1" xmlns="http://www.w3.org/2000/svg" xmlns:xlink="http://www.w3.org/1999/xlink" x="0px" y="0px"
	 viewBox="0 0 283.46 283.46" style="enable-background:new 0 0 283.46 283.46;" xml:space="preserve">
<g>
	<path d="M121.38,129.51c33.9,41.33,83.24,69.54,139.14,75.65c10.12-18.9,15.85-40.49,15.85-63.43c0-14.54-2.33-28.53-6.59-41.65
		c-11.79-2.07-23.91-3.15-36.29-3.15C192.29,96.93,153.82,108.89,121.38,129.51z"/>
	<path d="M233.5,90.93c11.5,0,22.86,0.91,34,2.66c-3.6-9.39-8.21-18.28-13.71-26.52C240.47,64.4,226.69,63,212.6,63
		c-41.79,0-80.75,12.3-113.48,33.46c5.39,9.93,11.57,19.36,18.43,28.24C151.86,102.71,191.77,90.93,233.5,90.93z"/>
	<path d="M248.73,60c-24.61-32.16-63.38-52.92-107-52.92c-24.01,0-46.54,6.29-66.05,17.3c3.12,23.67,10.21,46.11,20.58,66.62
		C130.66,68.87,170.71,57,212.6,57C224.83,57,236.91,58.02,248.73,60z"/>
	<path d="M70.06,27.74c-9.75,6.14-18.66,13.49-26.51,21.86c3.38,23.5,10.68,45.76,21.2,66.08c8.3-7.83,17.11-14.92,26.36-21.25
		C80.52,73.59,73.4,51.13,70.06,27.74z"/>
	<path d="M93.99,99.88c-9.32,6.42-18.09,13.56-26.24,21.36c5.44,9.77,11.64,19.07,18.51,27.8c8.23-7.71,16.97-14.71,26.14-20.95
		C105.5,119.13,99.35,109.7,93.99,99.88z"/>
	<path d="M244.17,229.11c4.86-5.69,9.25-11.8,13.12-18.26c-47.68-5.73-91.79-27.09-126.28-61.58c-5.24-5.24-10.17-10.71-14.8-16.38
		c-9.25,6.27-17.97,13.27-26.1,20.9C127.23,198.23,182.35,227.12,244.17,229.11z"/>
	<path d="M81.84,153.3c-6.94-8.76-13.18-17.96-18.63-27.57c-19.33,19.66-34.82,43.1-45.25,69.1c4.37,10.16,9.96,19.67,16.57,28.36
		c10.69-25.52,26.35-48.96,46.51-69.11C81.31,153.81,81.58,153.56,81.84,153.3z"/>
	<path d="M141.73,276.38c38.21,0,72.7-15.92,97.21-41.48c-53.05-2.91-102.52-24.94-140.38-62.81c-4.52-4.52-8.78-9.21-12.84-14.05
		c-20.05,19.95-36.09,43.93-46.8,70.6C63.61,257.83,100.5,276.38,141.73,276.38z"/>
	<path d="M7.09,141.73c0,15.75,2.71,30.86,7.68,44.9c10.65-24.5,25.92-47.03,45.38-66.49c0,0,0.01-0.01,0.01-0.01
		C49.5,99.94,42.14,78.16,38.36,55.46C18.84,78.82,7.09,108.9,7.09,141.73z"/>
</g>
</svg>
